<svg xmlns="http://www.w3.org/2000/svg" width="14" height="14" fill="none" viewBox="0 0 14 14"><rect width="14" height="14" fill="#fff" fill-opacity="0"/><path fill="#000" d="M8 7C8 7.55228 7.55228 8 7 8C6.44772 8 6 7.55228 6 7C6 6.44772 6.44772 6 7 6C7.55228 6 8 6.44772 8 7Z"/><path fill="#000" d="M10 8C10.5523 8 11 7.55228 11 7C11 6.44772 10.5523 6 10 6C9.44771 6 9 6.44772 9 7C9 7.55228 9.44771 8 10 8Z"/><path fill="#000" d="M5 7C5 7.55228 4.55228 8 4 8C3.44772 8 3 7.55228 3 7C3 6.44772 3.44772 6 4 6C4.55228 6 5 6.44772 5 7Z"/><path fill="#000" fill-rule="evenodd" d="M7 0C10.866 0 14 3.13401 14 7C14 10.866 10.866 14 7 14C3.13401 14 0 10.866 0 7C0 3.13401 3.13401 0 7 0ZM7 1.5C3.96243 1.5 1.5 3.96243 1.5 7C1.5 10.0376 3.96243 12.5 7 12.5C10.0376 12.5 12.5 10.0376 12.5 7C12.5 3.96243 10.0376 1.5 7 1.5Z" clip-rule="evenodd"/></svg>